<svg xmlns="http://www.w3.org/2000/svg" viewBox="-2.5 -2.5 30 30">
    <circle fill="#12161c" cx="12.5" cy="12.5" r="14.5"/>
    <path d="M21.914 11.586l-6.572-6.572 1.507-1.507c.545-.545.162-1.477-.609-1.481L10.76 2A1.255 1.255 0 009.5 3.26l.026 5.48c.004.77.936 1.154 1.481.609l1.507-1.507 6.572 6.572a2 2 0 102.828-2.828z" opacity=".75" fill="#fff"/>
    <path d="M3.086 12.414l6.572 6.572-1.507 1.507c-.545.545-.161 1.477.609 1.481l5.48.026a1.255 1.255 0 001.26-1.26l-.026-5.48c-.004-.771-.936-1.154-1.481-.609l-1.507 1.507-6.572-6.572a2 2 0 10-2.828 2.828z" fill="#fff"/>
</svg>