<svg viewBox="-40 -20 600 600" fill="none" xmlns="http://www.w3.org/2000/svg">
<path d="M340 0c8 0 17 1 25 4 3 1 7 3 9 7s2 9 0 13-5 6-8 9a72 72 0 00-29 45c-2 11 0 23 5 34 8 19 24 34 40 46 16 10 32 18 47 30a74 74 0 0129 81c-3 9-7 18-12 26 20 11 37 29 48 50a95 95 0 01-12 106c-16 19-38 32-62 40-33 12-69 15-104 18-33 3-67 3-100 2-36-2-73-6-108-14-21-5-41-13-59-24-12-9-24-20-31-33-8-14-13-31-11-48a93 93 0 0146-75 80 80 0 01-13-58c3-24 15-47 33-63 11-11 25-18 40-21 0-7 2-13 3-20l3-14c5-12 13-23 21-34 12-13 25-24 38-35 20-17 41-33 64-46a220 220 0 0198-26z" fill="#000"/>
<path d="M328 29l-8 8c-7 8-10 20-12 30a103 103 0 0029 91c14 13 31 25 48 34 10 6 20 11 29 19 7 6 13 12 16 21 4 11 3 23-1 33l-8 19-25-8c-6-1-10-3-16-2-5 0-10 3-13 7-3 3-3 8-2 12 2 5 7 8 12 10 14 6 30 6 44 12 11 5 22 12 31 20 12 12 21 26 24 43 3 15 1 30-6 44-7 13-18 24-31 32-17 9-37 14-56 17-67 14-137 17-205 10-29-4-59-9-87-19-18-6-35-17-46-32-8-12-12-27-10-42 3-14 11-27 21-37 13-11 29-19 45-22 8 0 17-1 24 2 6 2 12 5 19 5 8 1 15-7 14-15-1-5-5-9-9-12a100 100 0 00-49-8l-18 4c-2 0-2-1-3-2-8-7-12-18-12-28-1-15 3-29 11-42 8-12 20-22 33-27 8-3 16-3 24-3 14 2 25 7 39 11 4 1 9 3 14 2 6-2 12-9 11-16-2-6-7-11-12-14-12-5-24-6-37-9l-8-2c-1-12 4-24 10-34 11-17 27-31 41-45 28-24 58-46 93-58 13-5 26-7 40-9h2z" fill="#825B39"/>
<path d="M208 273c9-2 19 3 23 11 6 11 2 26-9 32-6 3-14 3-20 0-8-6-12-17-10-27 2-8 8-15 16-16zM299 274c11-4 23 1 27 11 5 9 2 21-6 28-5 5-13 7-20 4-8-3-13-12-14-20-1-10 4-20 13-23zM304 363c9-1 15 8 14 16-1 5-5 9-9 12a89 89 0 01-94 4c-6-4-12-9-13-16-1-9 9-17 18-15 10 3 18 10 28 12 9 2 19 1 28-2s18-11 28-11z" fill="#000"/>
</svg>